<svg width="5048" height="2854" viewBox="0 0 5048 2854" fill="none" xmlns="http://www.w3.org/2000/svg">
<path d="M525.914 -9.53674e-05H677.914V1400H525.914V-9.53674e-05ZM988.102 1180V220L1208.1 -9.53674e-05H1808.1L2020.1 212V340H1868.1V262L1740.1 136H1276.1L1140.1 270V1130L1276.1 1264H1740.1L1868.1 1138V1060H2020.1V1188L1808.1 1400H1208.1L988.102 1180ZM2269.82 -9.53674e-05H2417.82L3147.82 1152H3151.82V-9.53674e-05H3295.82V1400H3147.82L2417.82 248H2413.82V1400H2269.82V-9.53674e-05ZM3585.52 1216V1088H3735.52V1166L3831.52 1264H4311.52L4411.52 1162V848L4311.52 750H3773.52L3589.52 566V184L3773.52 -9.53674e-05H4361.52L4545.52 184V314H4397.52V234L4297.52 136H3839.52L3739.52 234V516L3839.52 614H4377.52L4561.52 798V1212L4373.52 1400H3769.52L3585.52 1216ZM0.201172 2236.52H72.7109V1998.97H0.201172V1935.5H217.242V1998.97H144.732V2236.52H217.242V2300H0.201172V2236.52ZM301.471 2026.56H365.436L372.516 2067.58C377.561 2052.28 386.188 2040.56 398.395 2032.42C410.764 2024.12 425.738 2019.97 443.316 2019.97C468.707 2019.97 487.994 2028.68 501.178 2046.09C514.361 2063.51 520.953 2088.98 520.953 2122.51V2300H449.908V2133.5C449.908 2114.29 447.141 2100.29 441.607 2091.5C436.236 2082.55 427.854 2078.08 416.461 2078.08C402.626 2078.08 391.803 2083.94 383.99 2095.65C376.34 2107.37 372.516 2123.32 372.516 2143.51V2300H301.471V2026.56ZM762.652 2300.98C735.797 2300.98 714.719 2298.21 699.42 2292.68C684.12 2287.14 673.297 2277.62 666.949 2264.11C660.764 2250.6 657.672 2232.05 657.672 2208.45V2081.49H587.848V2026.56H657.672V1951.86L729.205 1920.12V2026.56H822.711V2081.49H729.205V2211.87C729.205 2223.91 732.216 2232.62 738.238 2237.99C744.423 2243.36 754.27 2246.04 767.779 2246.04H822.711V2300.98H762.652ZM1026.08 2307.08C979.042 2307.08 943.235 2294.95 918.658 2270.7C894.244 2246.29 882.037 2211.05 882.037 2164.99C882.037 2135.86 887.083 2110.47 897.174 2088.82C907.265 2067.01 922.32 2050.08 942.34 2038.04C962.522 2025.99 987.75 2019.97 1018.02 2019.97C1042.93 2019.97 1064.49 2025.75 1082.72 2037.3C1100.95 2048.86 1115.03 2064.97 1124.96 2085.64C1135.05 2106.15 1140.09 2130.08 1140.09 2157.42V2186.47H954.791C954.791 2229.12 979.693 2250.44 1029.5 2250.44C1062.21 2250.44 1095.25 2240.59 1128.62 2220.9V2286.57C1095.42 2300.24 1061.24 2307.08 1026.08 2307.08ZM1068.07 2132.76C1068.07 2113.88 1063.43 2099.64 1054.16 2090.04C1044.88 2080.27 1031.61 2075.39 1014.36 2075.39C996.783 2075.39 983.03 2080.35 973.102 2090.28C963.173 2100.21 957.314 2114.37 955.523 2132.76H1068.07ZM1222.12 2026.56H1286.58L1293.66 2069.04C1300.66 2053.58 1311.32 2041.54 1325.64 2032.91C1340.13 2024.28 1357.05 2019.97 1376.42 2019.97C1396.44 2019.97 1415 2024.61 1432.09 2033.89V2102C1416.3 2087.68 1395.63 2080.52 1370.07 2080.52C1349.4 2080.52 1332.64 2085.24 1319.78 2094.68C1306.92 2104.12 1298.95 2117.71 1295.86 2135.45C1295.04 2139.68 1294.47 2144.81 1294.15 2150.83C1293.82 2156.85 1293.66 2164.58 1293.66 2174.02V2300H1222.12V2026.56ZM1506.55 2026.56H1570.51L1577.59 2067.58C1582.64 2052.28 1591.27 2040.56 1603.47 2032.42C1615.84 2024.12 1630.82 2019.97 1648.39 2019.97C1673.79 2019.97 1693.07 2028.68 1706.26 2046.09C1719.44 2063.51 1726.03 2088.98 1726.03 2122.51V2300H1654.99V2133.5C1654.99 2114.29 1652.22 2100.29 1646.69 2091.5C1641.31 2082.55 1632.93 2078.08 1621.54 2078.08C1607.7 2078.08 1596.88 2083.94 1589.07 2095.65C1581.42 2107.37 1577.59 2123.32 1577.59 2143.51V2300H1506.55V2026.56ZM1929.89 2307.08C1882.85 2307.08 1847.04 2294.95 1822.47 2270.7C1798.05 2246.29 1785.85 2211.05 1785.85 2164.99C1785.85 2135.86 1790.89 2110.47 1800.98 2088.82C1811.07 2067.01 1826.13 2050.08 1846.15 2038.04C1866.33 2025.99 1891.56 2019.97 1921.83 2019.97C1946.73 2019.97 1968.3 2025.75 1986.53 2037.3C2004.76 2048.86 2018.84 2064.97 2028.77 2085.64C2038.86 2106.15 2043.9 2130.08 2043.9 2157.42V2186.47H1858.6C1858.6 2229.12 1883.5 2250.44 1933.31 2250.44C1966.02 2250.44 1999.06 2240.59 2032.43 2220.9V2286.57C1999.22 2300.24 1965.04 2307.08 1929.89 2307.08ZM1971.88 2132.76C1971.88 2113.88 1967.24 2099.64 1957.96 2090.04C1948.69 2080.27 1935.42 2075.39 1918.17 2075.39C1900.59 2075.39 1886.84 2080.35 1876.91 2090.28C1866.98 2100.21 1861.12 2114.37 1859.33 2132.76H1971.88ZM2269 2300.98C2242.14 2300.98 2221.07 2298.21 2205.77 2292.68C2190.47 2287.14 2179.64 2277.62 2173.3 2264.11C2167.11 2250.6 2164.02 2232.05 2164.02 2208.45V2081.49H2094.2V2026.56H2164.02V1951.86L2235.55 1920.12V2026.56H2329.06V2081.49H2235.55V2211.87C2235.55 2223.91 2238.56 2232.62 2244.59 2237.99C2250.77 2243.36 2260.62 2246.04 2274.13 2246.04H2329.06V2300.98H2269ZM2854.94 2307.08C2806.27 2307.08 2768.92 2290.89 2742.88 2258.5C2717 2225.94 2704.06 2179.15 2704.06 2118.12C2704.06 2056.75 2717 2009.88 2742.88 1977.49C2768.92 1945.1 2806.27 1928.91 2854.94 1928.91C2869.1 1928.91 2882.53 1930.37 2895.22 1933.3C2907.92 1936.23 2919.8 1940.62 2930.87 1946.48V2026.56C2923.54 2019.73 2916.95 2014.44 2911.09 2010.69C2905.39 2006.79 2899.94 2003.69 2894.73 2001.42C2888.55 1998.65 2882.44 1996.7 2876.42 1995.56C2870.56 1994.25 2864.62 1993.6 2858.6 1993.6C2832.56 1993.6 2812.78 2004.02 2799.27 2024.85C2785.76 2046.18 2779.01 2077.26 2779.01 2118.12C2779.01 2159.13 2785.76 2190.06 2799.27 2210.89C2812.78 2231.88 2832.56 2242.38 2858.6 2242.38C2871.13 2242.38 2883.26 2239.7 2894.98 2234.33C2900.67 2231.72 2906.29 2228.55 2911.82 2224.8C2917.52 2220.9 2923.87 2215.77 2930.87 2209.42V2289.5C2919.47 2295.36 2907.51 2299.76 2894.98 2302.69C2882.44 2305.62 2869.1 2307.08 2854.94 2307.08ZM3121.29 2307.08C3095.42 2307.08 3072.96 2301.3 3053.91 2289.75C3035.03 2278.03 3020.46 2261.43 3010.21 2239.94C2999.96 2218.46 2994.83 2193.07 2994.83 2163.77C2994.83 2134.47 2999.96 2109.08 3010.21 2087.6C3020.63 2065.95 3035.36 2049.27 3054.4 2037.55C3073.61 2025.83 3096.31 2019.97 3122.52 2019.97C3148.39 2019.97 3170.69 2025.75 3189.41 2037.3C3208.13 2048.7 3222.53 2065.06 3232.62 2086.38C3242.88 2107.7 3248 2133.01 3248 2162.3C3248 2192.09 3242.8 2217.81 3232.38 2239.45C3222.12 2261.1 3207.56 2277.78 3188.68 2289.5C3169.8 2301.22 3147.34 2307.08 3121.29 2307.08ZM3121.54 2248.97C3138.3 2248.97 3151.65 2241.32 3161.58 2226.03C3171.51 2210.56 3176.47 2189.73 3176.47 2163.53C3176.47 2137.16 3171.51 2116.32 3161.58 2101.03C3151.65 2085.73 3138.3 2078.08 3121.54 2078.08C3104.61 2078.08 3091.18 2085.81 3081.26 2101.27C3071.33 2116.57 3066.36 2137.32 3066.36 2163.53C3066.36 2189.73 3071.33 2210.56 3081.26 2226.03C3091.18 2241.32 3104.61 2248.97 3121.54 2248.97ZM3292.19 2026.56H3337.12L3344.2 2054.88C3348.26 2043.98 3354.69 2035.43 3363.48 2029.25C3372.27 2023.06 3382.12 2019.97 3393.02 2019.97C3404.58 2019.97 3414.91 2023.31 3424.03 2029.98C3433.14 2036.49 3438.68 2044.47 3440.63 2053.91C3451.21 2031.28 3468.63 2019.97 3492.88 2019.97C3515.83 2019.97 3531.78 2028.03 3540.73 2044.14C3549.68 2060.42 3554.16 2094.35 3554.16 2145.95V2300H3495.56V2124.46C3495.56 2104.61 3494.02 2091.1 3490.92 2083.94C3487.83 2076.94 3482.13 2073.44 3473.83 2073.44C3465.86 2073.44 3460.32 2076.86 3457.23 2083.69C3453.81 2091.18 3452.11 2104.77 3452.11 2124.46V2300H3394.24V2124.46C3394.24 2105.26 3392.62 2091.75 3389.36 2083.94C3386.27 2076.94 3380.65 2073.44 3372.52 2073.44C3364.21 2073.44 3358.6 2076.69 3355.67 2083.2C3352.41 2089.71 3350.79 2103.47 3350.79 2124.46V2300H3292.19V2026.56ZM3610.06 2026.56H3674.27L3681.35 2067.58C3696.49 2035.84 3720.74 2019.97 3754.11 2019.97C3784.87 2019.97 3808.96 2032.75 3826.37 2058.3C3843.79 2083.69 3852.5 2118.85 3852.5 2163.77C3852.5 2208.69 3843.79 2243.85 3826.37 2269.24C3808.96 2294.47 3785.03 2307.08 3754.6 2307.08C3722.53 2307.08 3698.12 2291.86 3681.35 2261.43V2404H3610.06V2026.56ZM3731.4 2247.51C3746.38 2247.51 3758.34 2239.78 3767.29 2224.32C3776.41 2208.69 3780.96 2187.78 3780.96 2161.57C3780.96 2136.02 3776.57 2115.84 3767.78 2101.03C3759.15 2086.05 3747.27 2078.56 3732.13 2078.56C3716.67 2078.56 3704.3 2086.3 3695.03 2101.76C3685.91 2117.06 3681.35 2137.48 3681.35 2163.04C3681.35 2188.59 3685.91 2209.1 3695.03 2224.56C3704.14 2239.86 3716.27 2247.51 3731.4 2247.51ZM3991.9 2307.08C3966.51 2307.08 3947.14 2298.37 3933.79 2280.96C3920.45 2263.38 3913.78 2237.91 3913.78 2204.54V2026.56H3985.31V2193.55C3985.31 2230.18 3996.54 2248.49 4019 2248.49C4032.67 2248.49 4043.25 2242.79 4050.74 2231.4C4058.39 2220 4062.21 2204.05 4062.21 2183.54V2026.56H4133.75V2300H4069.29L4062.21 2259.47C4051.31 2291.21 4027.87 2307.08 3991.9 2307.08ZM4377.89 2300.98C4351.03 2300.98 4329.95 2298.21 4314.65 2292.68C4299.35 2287.14 4288.53 2277.62 4282.18 2264.11C4276 2250.6 4272.91 2232.05 4272.91 2208.45V2081.49H4203.08V2026.56H4272.91V1951.86L4344.44 1920.12V2026.56H4437.95V2081.49H4344.44V2211.87C4344.44 2223.91 4347.45 2232.62 4353.47 2237.99C4359.66 2243.36 4369.5 2246.04 4383.01 2246.04H4437.95V2300.98H4377.89ZM4641.31 2307.08C4594.28 2307.08 4558.47 2294.95 4533.89 2270.7C4509.48 2246.29 4497.27 2211.05 4497.27 2164.99C4497.27 2135.86 4502.32 2110.47 4512.41 2088.82C4522.5 2067.01 4537.55 2050.08 4557.57 2038.04C4577.76 2025.99 4602.98 2019.97 4633.26 2019.97C4658.16 2019.97 4679.73 2025.75 4697.96 2037.3C4716.18 2048.86 4730.26 2064.97 4740.19 2085.64C4750.28 2106.15 4755.33 2130.08 4755.33 2157.42V2186.47H4570.03C4570.03 2229.12 4594.93 2250.44 4644.73 2250.44C4677.45 2250.44 4710.49 2240.59 4743.85 2220.9V2286.57C4710.65 2300.24 4676.47 2307.08 4641.31 2307.08ZM4683.31 2132.76C4683.31 2113.88 4678.67 2099.64 4669.39 2090.04C4660.11 2080.27 4646.85 2075.39 4629.6 2075.39C4612.02 2075.39 4598.26 2080.35 4588.34 2090.28C4578.41 2100.21 4572.55 2114.37 4570.76 2132.76H4683.31ZM4837.36 2026.56H4901.81L4908.89 2069.04C4915.89 2053.58 4926.55 2041.54 4940.88 2032.91C4955.36 2024.28 4972.29 2019.97 4991.66 2019.97C5011.68 2019.97 5030.23 2024.61 5047.32 2033.89V2102C5031.53 2087.68 5010.86 2080.52 4985.31 2080.52C4964.64 2080.52 4947.87 2085.24 4935.02 2094.68C4922.16 2104.12 4914.18 2117.71 4911.09 2135.45C4910.28 2139.68 4909.71 2144.81 4909.38 2150.83C4909.06 2156.85 4908.89 2164.58 4908.89 2174.02V2300H4837.36V2026.56ZM891.07 2385.5H968.463L1070.03 2650.39V2385.5H1133.5V2750H1056.6L954.547 2485.11V2750H891.07V2385.5ZM1281.45 2757.08C1253.13 2757.08 1230.18 2749.02 1212.6 2732.91C1195.19 2716.63 1186.48 2693.28 1186.48 2662.84C1186.48 2643.64 1189.9 2628.01 1196.73 2615.97C1203.73 2603.76 1213.17 2594.32 1225.05 2587.65C1237.1 2580.97 1250.69 2576.42 1265.83 2573.97C1280.96 2571.37 1296.83 2570.07 1313.43 2570.07H1362.99V2558.11C1362.99 2548.34 1360.39 2540.93 1355.18 2535.89C1350.14 2530.84 1343.54 2527.43 1335.41 2525.63C1327.43 2523.84 1319.21 2522.95 1310.75 2522.95C1293.5 2522.95 1276.89 2525.31 1260.94 2530.03C1245.16 2534.75 1229.37 2541.42 1213.58 2550.05V2489.01C1230.51 2482.18 1247.27 2477.29 1263.87 2474.37C1280.64 2471.27 1297.56 2469.73 1314.65 2469.73C1344.6 2469.73 1368.28 2474.04 1385.7 2482.67C1403.11 2491.13 1415.48 2504.31 1422.81 2522.22C1430.3 2539.96 1434.04 2562.58 1434.04 2590.09C1434.04 2596.44 1433.88 2604.57 1433.55 2614.5C1433.39 2624.43 1433.31 2634.36 1433.31 2644.29C1433.31 2653.08 1433.23 2661.38 1433.06 2669.19C1432.9 2677 1432.82 2683.59 1432.82 2688.96C1432.82 2693.68 1433.06 2699.87 1433.55 2707.52C1434.04 2715.01 1435.18 2722.66 1436.97 2730.47C1438.76 2738.28 1441.53 2744.79 1445.27 2750H1374.47C1371.38 2744.79 1369.1 2739.91 1367.63 2735.35C1366.17 2730.79 1365.11 2725.5 1364.46 2719.48C1354.86 2732.34 1342.81 2741.86 1328.33 2748.05C1314 2754.07 1298.38 2757.08 1281.45 2757.08ZM1304.89 2707.52C1319.86 2707.52 1331.5 2703.45 1339.8 2695.31C1348.26 2687.01 1354.21 2676.68 1357.62 2664.31C1361.2 2651.77 1362.99 2639.16 1362.99 2626.46V2621.58H1334.43C1323.2 2621.58 1312.05 2622.4 1300.98 2624.02C1289.91 2625.49 1280.72 2629.31 1273.39 2635.5C1266.23 2641.52 1262.65 2651.53 1262.65 2665.53C1262.65 2678.87 1266.31 2689.21 1273.64 2696.53C1281.13 2703.86 1291.54 2707.52 1304.89 2707.52ZM1484.58 2476.56H1529.5L1536.58 2504.88C1540.65 2493.98 1547.08 2485.43 1555.87 2479.25C1564.65 2473.06 1574.5 2469.97 1585.41 2469.97C1596.96 2469.97 1607.3 2473.31 1616.41 2479.98C1625.53 2486.49 1631.06 2494.47 1633.01 2503.91C1643.59 2481.28 1661.01 2469.97 1685.26 2469.97C1708.21 2469.97 1724.16 2478.03 1733.11 2494.14C1742.06 2510.42 1746.54 2544.35 1746.54 2595.95V2750H1687.95V2574.46C1687.95 2554.61 1686.4 2541.1 1683.31 2533.94C1680.21 2526.94 1674.52 2523.44 1666.22 2523.44C1658.24 2523.44 1652.71 2526.86 1649.62 2533.69C1646.2 2541.18 1644.49 2554.77 1644.49 2574.46V2750H1586.63V2574.46C1586.63 2555.26 1585 2541.75 1581.74 2533.94C1578.65 2526.94 1573.04 2523.44 1564.9 2523.44C1556.6 2523.44 1550.98 2526.69 1548.05 2533.2C1544.8 2539.71 1543.17 2553.47 1543.17 2574.46V2750H1484.58V2476.56ZM1929.89 2757.08C1882.85 2757.08 1847.04 2744.95 1822.47 2720.7C1798.05 2696.29 1785.85 2661.05 1785.85 2614.99C1785.85 2585.86 1790.89 2560.47 1800.98 2538.82C1811.07 2517.01 1826.13 2500.08 1846.15 2488.04C1866.33 2475.99 1891.56 2469.97 1921.83 2469.97C1946.73 2469.97 1968.3 2475.75 1986.53 2487.3C2004.76 2498.86 2018.84 2514.97 2028.77 2535.64C2038.86 2556.15 2043.9 2580.08 2043.9 2607.42V2636.47H1858.6C1858.6 2679.12 1883.5 2700.44 1933.31 2700.44C1966.02 2700.44 1999.06 2690.59 2032.43 2670.9V2736.57C1999.22 2750.24 1965.04 2757.08 1929.89 2757.08ZM1971.88 2582.76C1971.88 2563.88 1967.24 2549.64 1957.96 2540.04C1948.69 2530.27 1935.42 2525.39 1918.17 2525.39C1900.59 2525.39 1886.84 2530.35 1876.91 2540.28C1866.98 2550.21 1861.12 2564.37 1859.33 2582.76H1971.88ZM2510.46 2757.08C2500.69 2757.08 2491.17 2756.59 2481.89 2755.62C2472.61 2754.64 2463.34 2753.01 2454.06 2750.73C2435.18 2746.34 2417.6 2739.91 2401.32 2731.45V2656.98C2420.69 2670.65 2439.33 2680.83 2457.23 2687.5C2475.46 2694.17 2493.04 2697.51 2509.97 2697.51C2527.87 2697.51 2541.79 2693.44 2551.71 2685.3C2561.48 2677.33 2566.36 2666.1 2566.36 2651.61C2566.36 2640.38 2563.11 2630.78 2556.6 2622.8C2553.18 2618.57 2549.03 2614.91 2544.15 2611.82C2539.43 2608.56 2534.14 2605.79 2528.28 2603.52L2492.88 2590.09C2474.16 2582.93 2458.78 2575.76 2446.73 2568.6C2434.69 2561.28 2425.49 2553.87 2419.15 2546.39C2406.29 2531.58 2399.86 2511.15 2399.86 2485.11C2399.86 2451.9 2410.44 2425.94 2431.6 2407.23C2452.92 2388.35 2481.89 2378.91 2518.51 2378.91C2536.58 2378.91 2553.42 2380.7 2569.05 2384.28C2584.84 2387.86 2601.44 2393.64 2618.85 2401.61V2471.92C2587.6 2449.63 2556.03 2438.48 2524.13 2438.48C2506.55 2438.48 2493.28 2441.98 2484.33 2448.97C2475.05 2455.97 2470.42 2465.9 2470.42 2478.76C2470.42 2489.01 2473.83 2497.4 2480.67 2503.91C2483.93 2507.16 2488.73 2510.5 2495.07 2513.92C2501.58 2517.33 2510.86 2521.32 2522.91 2525.88L2553.91 2537.6C2583.37 2548.5 2604.94 2562.66 2618.61 2580.08C2632.44 2597.82 2639.36 2620.69 2639.36 2648.68C2639.36 2684.65 2628.46 2711.67 2606.65 2729.74C2584.84 2747.97 2552.77 2757.08 2510.46 2757.08ZM2703.08 2799.07H2710.89H2718.22C2730.1 2799.07 2739.7 2798.58 2747.03 2797.61C2754.35 2796.79 2760.29 2794.6 2764.85 2791.02C2769.57 2787.6 2773.8 2782.06 2777.54 2774.41C2781.29 2766.76 2785.6 2756.1 2790.48 2742.43L2686.48 2476.56H2761.68L2824.18 2654.05L2883.99 2476.56H2959.19L2845.66 2779.54C2840.78 2792.72 2834.76 2804.93 2827.59 2816.16C2820.6 2827.39 2811.81 2836.43 2801.23 2843.26C2790.65 2850.1 2777.63 2853.52 2762.16 2853.52H2703.08V2799.07ZM3119.59 2757.08C3088.82 2757.08 3054.73 2751.38 3017.29 2739.99V2677.49C3049.35 2695.88 3081.5 2705.08 3113.73 2705.08C3147.26 2705.08 3164.02 2695.15 3164.02 2675.29C3164.02 2666.5 3160.03 2659.42 3152.06 2654.05C3144.08 2648.68 3130.49 2643.96 3111.29 2639.89L3091.51 2635.5C3039.1 2623.78 3012.9 2596.84 3012.9 2554.69C3012.9 2527.67 3022.58 2506.84 3041.95 2492.19C3061.48 2477.38 3089.72 2469.97 3126.67 2469.97C3140.99 2469.97 3155.15 2471.19 3169.15 2473.63C3183.31 2476.07 3197.87 2479.9 3212.85 2485.11V2547.61C3198.52 2538.66 3184.77 2532.15 3171.59 2528.08C3158.57 2524.01 3145.14 2521.97 3131.3 2521.97C3115.03 2521.97 3102.5 2524.33 3093.71 2529.05C3084.92 2533.77 3080.52 2540.12 3080.52 2548.1C3080.52 2555.42 3084.59 2561.77 3092.73 2567.14C3101.03 2572.35 3114.38 2577.07 3132.77 2581.3L3155.96 2586.91C3182 2593.1 3201.05 2603.03 3213.09 2616.7C3225.3 2630.37 3231.4 2648.44 3231.4 2670.9C3231.4 2728.35 3194.13 2757.08 3119.59 2757.08ZM3474.08 2750.98C3447.22 2750.98 3426.15 2748.21 3410.85 2742.68C3395.55 2737.14 3384.72 2727.62 3378.38 2714.11C3372.19 2700.6 3369.1 2682.05 3369.1 2658.45V2531.49H3299.27V2476.56H3369.1V2401.86L3440.63 2370.12V2476.56H3534.14V2531.49H3440.63V2661.87C3440.63 2673.91 3443.64 2682.62 3449.66 2687.99C3455.85 2693.36 3465.7 2696.04 3479.21 2696.04H3534.14V2750.98H3474.08ZM3737.51 2757.08C3690.47 2757.08 3654.66 2744.95 3630.08 2720.7C3605.67 2696.29 3593.46 2661.05 3593.46 2614.99C3593.46 2585.86 3598.51 2560.47 3608.6 2538.82C3618.69 2517.01 3633.75 2500.08 3653.77 2488.04C3673.95 2475.99 3699.18 2469.97 3729.45 2469.97C3754.35 2469.97 3775.92 2475.75 3794.15 2487.3C3812.38 2498.86 3826.45 2514.97 3836.38 2535.64C3846.47 2556.15 3851.52 2580.08 3851.52 2607.42V2636.47H3666.22C3666.22 2679.12 3691.12 2700.44 3740.92 2700.44C3773.64 2700.44 3806.68 2690.59 3840.04 2670.9V2736.57C3806.84 2750.24 3772.66 2757.08 3737.51 2757.08ZM3779.5 2582.76C3779.5 2563.88 3774.86 2549.64 3765.58 2540.04C3756.3 2530.27 3743.04 2525.39 3725.79 2525.39C3708.21 2525.39 3694.46 2530.35 3684.53 2540.28C3674.6 2550.21 3668.74 2564.37 3666.95 2582.76H3779.5ZM3894.73 2476.56H3939.65L3946.73 2504.88C3950.8 2493.98 3957.23 2485.43 3966.02 2479.25C3974.81 2473.06 3984.66 2469.97 3995.56 2469.97C4007.12 2469.97 4017.45 2473.31 4026.57 2479.98C4035.68 2486.49 4041.22 2494.47 4043.17 2503.91C4053.75 2481.28 4071.16 2469.97 4095.42 2469.97C4118.37 2469.97 4134.32 2478.03 4143.27 2494.14C4152.22 2510.42 4156.7 2544.35 4156.7 2595.95V2750H4098.1V2574.46C4098.1 2554.61 4096.56 2541.1 4093.46 2533.94C4090.37 2526.94 4084.67 2523.44 4076.37 2523.44C4068.4 2523.44 4062.86 2526.86 4059.77 2533.69C4056.35 2541.18 4054.64 2554.77 4054.64 2574.46V2750H3996.78V2574.46C3996.78 2555.26 3995.16 2541.75 3991.9 2533.94C3988.81 2526.94 3983.19 2523.44 3975.05 2523.44C3966.75 2523.44 3961.14 2526.69 3958.21 2533.2C3954.95 2539.71 3953.33 2553.47 3953.33 2574.46V2750H3894.73V2476.56Z" fill="white"/>
</svg>
